<svg width="290" height="290" viewBox="0 0 290 290" fill="none" xmlns="http://www.w3.org/2000/svg">
<path d="M88.4292 217.244L70.9876 199.803C66.1897 195.005 64.4964 188.062 66.6413 181.627C68.3346 176.604 70.5925 170.056 73.3018 162.549H13.5827C8.7284 162.549 4.21278 159.952 1.78563 155.719C-0.641518 151.485 -0.585073 146.292 1.89852 142.116L31.5323 92.1614C38.8702 79.7999 52.1348 72.2362 66.4719 72.2362H112.926C114.281 69.9784 115.636 67.8899 116.991 65.8579C163.219 -2.32805 232.082 -4.58586 273.175 2.97781C279.722 4.16317 284.802 9.29969 286.044 15.8473C293.608 56.996 291.294 125.803 223.164 172.032C221.189 173.386 219.044 174.741 216.786 176.096V222.55C216.786 236.887 209.222 250.208 196.861 257.49L146.907 287.124C142.73 289.607 137.537 289.664 133.303 287.236C129.07 284.809 126.473 280.35 126.473 275.439V214.93C118.515 217.696 111.572 219.954 106.322 221.647C100 223.679 93.1141 221.929 88.3727 217.244H88.4292ZM216.786 94.8143C222.774 94.8143 228.517 92.4356 232.751 88.2014C236.985 83.9671 239.364 78.2243 239.364 72.2362C239.364 66.2481 236.985 60.5053 232.751 56.2711C228.517 52.0368 222.774 49.6581 216.786 49.6581C210.798 49.6581 205.055 52.0368 200.821 56.2711C196.586 60.5053 194.208 66.2481 194.208 72.2362C194.208 78.2243 196.586 83.9671 200.821 88.2014C205.055 92.4356 210.798 94.8143 216.786 94.8143Z" fill="url(#paint0_linear_20_229)"/>
<defs>
<linearGradient id="paint0_linear_20_229" x1="9.09091e-06" y1="245.5" x2="201" y2="123" gradientUnits="userSpaceOnUse">
<stop offset="0.224757" stop-color="#1F55BE"/>
<stop offset="1" stop-color="#1F98BE"/>
</linearGradient>
</defs>
</svg>
