<svg width="335" height="114" viewBox="0 0 335 114" fill="none" xmlns="http://www.w3.org/2000/svg">
<path d="M30.649 80.1521L25.0969 74.6001C23.5697 73.0729 23.0306 70.8629 23.7134 68.8146C24.2525 67.2155 24.9712 65.1313 25.8336 62.7417H6.82368C5.27845 62.7417 3.84102 61.9152 3.06841 60.5676C2.29579 59.2201 2.31376 57.5671 3.10434 56.2375L12.5374 40.3363C14.8733 36.4015 19.0957 33.9939 23.6595 33.9939H38.447C38.8783 33.2752 39.3095 32.6104 39.7407 31.9635C54.4564 10.2589 76.3771 9.54025 89.4577 11.9479C91.5419 12.3252 93.159 13.9602 93.5543 16.0444C95.962 29.1427 95.2253 51.0449 73.5382 65.7602C72.9093 66.1914 72.2265 66.6226 71.5078 67.0538V81.841C71.5078 86.4047 69.1001 90.645 65.1652 92.9628L49.2637 102.396C47.934 103.186 46.281 103.204 44.9334 102.432C43.5858 101.659 42.7593 100.24 42.7593 98.6764V79.4154C40.2258 80.2958 38.0158 81.0145 36.3448 81.5535C34.3324 82.2003 32.1403 81.6433 30.631 80.1521H30.649ZM71.5078 41.1808C73.414 41.1808 75.242 40.4236 76.5899 39.0758C77.9377 37.728 78.6949 35.9 78.6949 33.9939C78.6949 32.0878 77.9377 30.2597 76.5899 28.9119C75.242 27.5641 73.414 26.8069 71.5078 26.8069C69.6017 26.8069 67.7736 27.5641 66.4257 28.9119C65.0779 30.2597 64.3207 32.0878 64.3207 33.9939C64.3207 35.9 65.0779 37.728 66.4257 39.0758C67.7736 40.4236 69.6017 41.1808 71.5078 41.1808Z" fill="url(#paint0_linear_20_233)"/>
<path d="M121.26 71L111.82 58.6V71H104.98V42.92H111.82V55.24L121.18 42.92H129.22L118.34 56.68L129.62 71H121.26ZM136.311 46.36C135.111 46.36 134.124 46.0133 133.351 45.32C132.604 44.6 132.231 43.72 132.231 42.68C132.231 41.6133 132.604 40.7333 133.351 40.04C134.124 39.32 135.111 38.96 136.311 38.96C137.484 38.96 138.444 39.32 139.191 40.04C139.964 40.7333 140.351 41.6133 140.351 42.68C140.351 43.72 139.964 44.6 139.191 45.32C138.444 46.0133 137.484 46.36 136.311 46.36ZM139.711 48.68V71H132.871V48.68H139.711ZM143.308 59.84C143.308 57.52 143.774 55.4933 144.708 53.76C145.668 52.0267 146.988 50.6933 148.668 49.76C150.374 48.8267 152.321 48.36 154.508 48.36C157.308 48.36 159.641 49.0933 161.508 50.56C163.401 52.0267 164.641 54.0933 165.228 56.76H157.948C157.334 55.0533 156.148 54.2 154.388 54.2C153.134 54.2 152.134 54.6933 151.388 55.68C150.641 56.64 150.268 58.0267 150.268 59.84C150.268 61.6533 150.641 63.0533 151.388 64.04C152.134 65 153.134 65.48 154.388 65.48C156.148 65.48 157.334 64.6267 157.948 62.92H165.228C164.641 65.5333 163.401 67.5867 161.508 69.08C159.614 70.5733 157.281 71.32 154.508 71.32C152.321 71.32 150.374 70.8533 148.668 69.92C146.988 68.9867 145.668 67.6533 144.708 65.92C143.774 64.1867 143.308 62.16 143.308 59.84ZM182.526 71L175.726 61.64V71H168.886V41.4H175.726V57.76L182.486 48.68H190.926L181.646 59.88L191.006 71H182.526ZM202.693 71.32C200.746 71.32 199.013 70.9867 197.493 70.32C195.973 69.6533 194.773 68.7467 193.893 67.6C193.013 66.4267 192.519 65.12 192.413 63.68H199.173C199.253 64.4533 199.613 65.08 200.253 65.56C200.893 66.04 201.679 66.28 202.613 66.28C203.466 66.28 204.119 66.12 204.573 65.8C205.053 65.4533 205.293 65.0133 205.293 64.48C205.293 63.84 204.959 63.3733 204.293 63.08C203.626 62.76 202.546 62.4133 201.053 62.04C199.453 61.6667 198.119 61.28 197.053 60.88C195.986 60.4533 195.066 59.8 194.293 58.92C193.519 58.0133 193.133 56.8 193.133 55.28C193.133 54 193.479 52.84 194.173 51.8C194.893 50.7333 195.933 49.8933 197.293 49.28C198.679 48.6667 200.319 48.36 202.213 48.36C205.013 48.36 207.213 49.0533 208.813 50.44C210.439 51.8267 211.373 53.6667 211.613 55.96H205.293C205.186 55.1867 204.839 54.5733 204.253 54.12C203.693 53.6667 202.946 53.44 202.013 53.44C201.213 53.44 200.599 53.6 200.173 53.92C199.746 54.2133 199.533 54.6267 199.533 55.16C199.533 55.8 199.866 56.28 200.533 56.6C201.226 56.92 202.293 57.24 203.733 57.56C205.386 57.9867 206.733 58.4133 207.773 58.84C208.813 59.24 209.719 59.9067 210.493 60.84C211.293 61.7467 211.706 62.9733 211.733 64.52C211.733 65.8267 211.359 67 210.613 68.04C209.893 69.0533 208.839 69.8533 207.453 70.44C206.093 71.0267 204.506 71.32 202.693 71.32ZM228.358 65.2V71H224.878C222.398 71 220.464 70.4 219.078 69.2C217.691 67.9733 216.998 65.9867 216.998 63.24V54.36H214.278V48.68H216.998V43.24H223.838V48.68H228.318V54.36H223.838V63.32C223.838 63.9867 223.998 64.4667 224.318 64.76C224.638 65.0533 225.171 65.2 225.918 65.2H228.358ZM230.808 59.8C230.808 57.5067 231.234 55.4933 232.088 53.76C232.968 52.0267 234.154 50.6933 235.648 49.76C237.141 48.8267 238.808 48.36 240.648 48.36C242.221 48.36 243.594 48.68 244.768 49.32C245.968 49.96 246.888 50.8 247.528 51.84V48.68H254.368V71H247.528V67.84C246.861 68.88 245.928 69.72 244.728 70.36C243.554 71 242.181 71.32 240.608 71.32C238.794 71.32 237.141 70.8533 235.648 69.92C234.154 68.96 232.968 67.6133 232.088 65.88C231.234 64.12 230.808 62.0933 230.808 59.8ZM247.528 59.84C247.528 58.1333 247.048 56.7867 246.088 55.8C245.154 54.8133 244.008 54.32 242.648 54.32C241.288 54.32 240.128 54.8133 239.168 55.8C238.234 56.76 237.768 58.0933 237.768 59.8C237.768 61.5067 238.234 62.8667 239.168 63.88C240.128 64.8667 241.288 65.36 242.648 65.36C244.008 65.36 245.154 64.8667 246.088 63.88C247.048 62.8933 247.528 61.5467 247.528 59.84ZM266.156 52.4C266.956 51.1733 267.956 50.2133 269.156 49.52C270.356 48.8 271.689 48.44 273.156 48.44V55.68H271.276C269.569 55.68 268.289 56.0533 267.436 56.8C266.583 57.52 266.156 58.8 266.156 60.64V71H259.316V48.68H266.156V52.4ZM288.865 65.2V71H285.385C282.905 71 280.972 70.4 279.585 69.2C278.199 67.9733 277.505 65.9867 277.505 63.24V54.36H274.785V48.68H277.505V43.24H284.345V48.68H288.825V54.36H284.345V63.32C284.345 63.9867 284.505 64.4667 284.825 64.76C285.145 65.0533 285.679 65.2 286.425 65.2H288.865ZM313.715 59.48C313.715 60.12 313.675 60.7867 313.595 61.48H298.115C298.222 62.8667 298.662 63.9333 299.435 64.68C300.235 65.4 301.209 65.76 302.355 65.76C304.062 65.76 305.249 65.04 305.915 63.6H313.195C312.822 65.0667 312.142 66.3867 311.155 67.56C310.195 68.7333 308.982 69.6533 307.515 70.32C306.049 70.9867 304.409 71.32 302.595 71.32C300.409 71.32 298.462 70.8533 296.755 69.92C295.049 68.9867 293.715 67.6533 292.755 65.92C291.795 64.1867 291.315 62.16 291.315 59.84C291.315 57.52 291.782 55.4933 292.715 53.76C293.675 52.0267 295.009 50.6933 296.715 49.76C298.422 48.8267 300.382 48.36 302.595 48.36C304.755 48.36 306.675 48.8133 308.355 49.72C310.035 50.6267 311.342 51.92 312.275 53.6C313.235 55.28 313.715 57.24 313.715 59.48ZM306.715 57.68C306.715 56.5067 306.315 55.5733 305.515 54.88C304.715 54.1867 303.715 53.84 302.515 53.84C301.369 53.84 300.395 54.1733 299.595 54.84C298.822 55.5067 298.342 56.4533 298.155 57.68H306.715ZM324.164 52.4C324.964 51.1733 325.964 50.2133 327.164 49.52C328.364 48.8 329.697 48.44 331.164 48.44V55.68H329.284C327.577 55.68 326.297 56.0533 325.444 56.8C324.59 57.52 324.164 58.8 324.164 60.64V71H317.324V48.68H324.164V52.4Z" fill="black"/>
<defs>
<linearGradient id="paint0_linear_20_233" x1="2.5" y1="89.1463" x2="66.482" y2="50.1513" gradientUnits="userSpaceOnUse">
<stop offset="0.224757" stop-color="#1F55BE"/>
<stop offset="1" stop-color="#1F98BE"/>
</linearGradient>
</defs>
</svg>
