<svg width="500" height="500" viewBox="0 0 500 500" fill="none" xmlns="http://www.w3.org/2000/svg">
<circle cx="250" cy="250" r="203" fill="url(#paint0_linear_5_8)"/>
<path d="M68 237C53 256.5 49.6667 284.5 53 300L324.5 279.5C362.5 249.333 438.2 186 437 174C435.8 162 423.5 143.333 418 135.5C412 128.5 398.5 141 392.5 147.5C381.851 159.037 341 198.5 304 215.5C267 232.5 194.5 225.5 156 208C117.5 190.5 83.0958 217.376 68 237Z" fill="url(#paint1_linear_5_8)"/>
<path d="M140 252C102.8 251.6 65.8333 281.167 52 296.5C53 303.833 60 330.5 80.5 362C109.859 407.112 139 422.5 173.5 439C208.547 455.762 284 465.711 348.5 429.5C405.5 397.5 433.691 356.236 449 295C461 247 449 191 436.5 169C432.667 169.333 416.6 171.6 383 178C341 186 303 237.5 255.5 257.5C208 277.5 186.5 252.5 140 252Z" fill="url(#paint2_linear_5_8)"/>
<defs>
<linearGradient id="paint0_linear_5_8" x1="406.5" y1="9.49999" x2="60" y2="285" gradientUnits="userSpaceOnUse">
<stop/>
<stop offset="1" stop-color="#1F0047"/>
</linearGradient>
<linearGradient id="paint1_linear_5_8" x1="244.452" y1="135.5" x2="244.452" y2="300" gradientUnits="userSpaceOnUse">
<stop stop-color="#5200FF"/>
<stop offset="1" stop-color="#1400FF"/>
</linearGradient>
<linearGradient id="paint2_linear_5_8" x1="147.5" y1="243" x2="330.5" y2="483" gradientUnits="userSpaceOnUse">
<stop stop-color="#0075FF"/>
<stop offset="1" stop-color="#00FFE0"/>
</linearGradient>
</defs>
</svg>
