<svg width="534" height="530" viewBox="0 0 534 530" fill="none" xmlns="http://www.w3.org/2000/svg">
<rect x="87" y="120" width="358" height="303" fill="black"/>
<path d="M523 265C523 197.105 496.029 131.99 448.019 83.9807C400.01 35.9714 334.895 9 267 9C199.105 9 133.99 35.9714 85.9807 83.9807C37.9714 131.99 11 197.105 11 265C11 332.895 37.9714 398.01 85.9807 446.019C133.99 494.029 199.105 521 267 521C334.895 521 400.01 494.029 448.019 446.019C496.029 398.01 523 332.895 523 265ZM242 136C251.4 126.6 266.6 126.6 275.9 136C285.2 145.4 285.3 160.6 275.9 169.9L204.9 240.9L387 241C400.3 241 411 251.7 411 265C411 278.3 400.3 289 387 289H204.9L275.9 360C285.3 369.4 285.3 384.6 275.9 393.9C266.5 403.2 251.3 403.3 242 393.9L130 282C120.6 272.6 120.6 257.4 130 248.1L242 136Z" fill="#C5C5C5"/>
</svg>
