<svg width="534" height="530" viewBox="0 0 534 530" fill="none" xmlns="http://www.w3.org/2000/svg">
<rect x="87" y="120" width="358" height="303" fill="black"/>
<path d="M11 265C11 332.895 37.9714 398.01 85.9807 446.019C133.99 494.029 199.105 521 267 521C334.895 521 400.01 494.029 448.019 446.019C496.029 398.01 523 332.895 523 265C523 197.105 496.029 131.99 448.019 83.9807C400.01 35.9714 334.895 9 267 9C199.105 9 133.99 35.9714 85.9807 83.9807C37.9714 131.99 11 197.105 11 265ZM292 394C282.6 403.4 267.4 403.4 258.1 394C248.8 384.6 248.7 369.4 258.1 360.1L329.1 289.1L147 289C133.7 289 123 278.3 123 265C123 251.7 133.7 241 147 241H329.1L258.1 170C248.7 160.6 248.7 145.4 258.1 136.1C267.5 126.8 282.7 126.7 292 136.1L404 248C413.4 257.4 413.4 272.6 404 281.9L292 394Z" fill="#C5C5C5"/>
</svg>
