<?xml version="1.0" encoding="utf-8"?>
<!-- Generator: Adobe Illustrator 16.0.0, SVG Export Plug-In . SVG Version: 6.00 Build 0)  -->
<!DOCTYPE svg PUBLIC "-//W3C//DTD SVG 1.1//EN" "http://www.w3.org/Graphics/SVG/1.1/DTD/svg11.dtd">
<svg version="1.1" id="Layer_1" xmlns="http://www.w3.org/2000/svg" xmlns:xlink="http://www.w3.org/1999/xlink" x="0px" y="0px"
	 width="492.456px" height="109.266px" viewBox="0 0 492.456 109.266" enable-background="new 0 0 492.456 109.266"
	 xml:space="preserve">
<g>
	<g>
		<path fill-rule="evenodd" clip-rule="evenodd" fill="#E61051" d="M107.658,102.369c-0.752-1.875-15.093-37.992-26.227-66.024
			c-2.281,3.064-5.925,7.959-6.236,8.369c-0.473,0.59-0.89,0.59-1.373,0.59c-0.485,0-0.982,0-0.982,0s-0.594,2.307-1.57,3.34
			c-0.974,1.027-2.544,3.14-2.544,3.14s2.625,0.897,4.309,1.377c1.687,0.477,2.439,1.698,2.944,2.945
			c0.463,1.148,9.052,23.027,9.25,23.373c0.204,0.345,2.908,2.711,3.127,2.975c0.218,0.27,4.481,7.438,5.278,8.807
			c0.608,1.052,0.589,2.323,0.589,3.148c0,0.827,0.044,1.978-0.589,2.748c-0.563,0.682-8.272,10.004-9.36,11.275
			c-0.272,0.318-0.586,0.599-0.926,0.833h20.678C107.502,109.266,108.869,105.396,107.658,102.369z M41.705,30.771
			c0.805,0.245,1.573,0.78,1.96,1.96c0.395,1.186,2.812,8.466,2.946,8.839c0.135,0.39,0.055,1.019-0.198,1.579
			c-0.002-0.011,7.878,2.481,8.164,2.57c0.287,0.086,0.41,0.346,0,0.601c-0.759,0.457-3.036,1.823-3.211,1.898
			c-0.175,0.074-0.563,0.053-0.783-0.099c-0.224-0.149-4.596-3.602-4.596-3.602s0.034,1.605,1,2.401
			c0.959,0.799,7.097,7.025,7.47,7.417c0.373,0.394,0.687,0.59,1.175,0.59h3.084c0.489,0,0.803-0.197,1.175-0.59
			c0.373-0.392,6.511-6.619,7.473-7.417c0.963-0.796,0.997-2.401,0.997-2.401s-4.37,3.452-4.595,3.602
			c-0.224,0.151-0.607,0.173-0.784,0.099c-0.175-0.076-2.45-1.442-3.211-1.898c-0.408-0.255-0.287-0.515,0-0.601
			c0.287-0.089,8.168-2.581,8.164-2.57c-0.252-0.56-0.332-1.189-0.195-1.579c0.129-0.373,2.552-7.653,2.943-8.839
			c0.391-1.181,1.159-1.715,1.962-1.96c0.803-0.25,2.551-0.789,2.551-0.789s0.135-4.776,0.247-8.704
			c-3.863-9.721-6.606-16.617-7.007-17.603c-1.575-3.886-6.005-5.01-8.9-1.815c-1.21,1.335-10.108,11.128-20.539,22.606
			c0.085,2.932,0.158,5.516,0.158,5.516S40.903,30.521,41.705,30.771z M51.908,16.789c0-0.195,0.309-0.557,0.543-0.36
			c0.24,0.198,3.777,3.048,3.998,3.235c0.221,0.192,0.458,0.362,0.727,0.362c0.267,0,0.502-0.17,0.726-0.362
			c0.221-0.188,3.757-3.037,3.997-3.235c0.238-0.197,0.544,0.165,0.544,0.36v1.439c0,0.048-0.014,0.488-0.294,0.722
			c-0.276,0.236-3.468,2.885-3.883,3.237c-0.415,0.348-0.765,0.529-1.09,0.538c-0.322-0.008-0.675-0.19-1.089-0.538
			c-0.415-0.352-3.607-3.001-3.885-3.237c-0.277-0.234-0.294-0.674-0.294-0.722V16.789z M51.908,21.325
			c0-0.195,0.309-0.557,0.543-0.361c0.24,0.195,3.777,3.046,3.998,3.236c0.221,0.193,0.458,0.36,0.727,0.36
			c0.267,0,0.502-0.167,0.726-0.36c0.221-0.19,3.757-3.041,3.997-3.236c0.238-0.196,0.544,0.166,0.544,0.361v7.423
			c0,0.051-0.014,0.489-0.294,0.725c-0.276,0.234-3.468,2.884-3.883,3.234c-0.415,0.346-0.765,0.53-1.09,0.539
			c-0.322-0.009-0.675-0.193-1.089-0.539c-0.415-0.35-3.607-3-3.885-3.234c-0.277-0.236-0.294-0.674-0.294-0.725V21.325z
			 M51.908,31.846c0-0.197,0.309-0.557,0.543-0.36c0.24,0.199,3.777,3.044,3.998,3.236c0.221,0.193,0.458,0.364,0.727,0.364
			c0.267,0,0.502-0.171,0.726-0.364c0.221-0.192,3.757-3.037,3.997-3.236c0.238-0.197,0.544,0.163,0.544,0.36v6.843
			c0,0.086-0.031,0.166-0.083,0.235l-0.089,0.094c-0.048,0.066-0.032,0.031-0.119,0.078c-0.172,0.09-0.397,0.139-0.62,0.136
			c-0.44-0.004-0.907-0.176-0.907-0.543v-3.413c-0.988,0.822-2.126,1.767-2.361,1.965c-0.415,0.349-0.765,0.535-1.09,0.539
			c-0.322-0.004-0.675-0.19-1.089-0.539c-0.236-0.198-1.376-1.143-2.362-1.965v3.413c0,0.349-0.465,0.549-0.908,0.543
			c-0.442-0.004-0.908-0.176-0.908-0.543V31.846z M57.175,30.548c0.267,0,0.502-0.168,0.726-0.36
			c0.14-0.121,1.605-1.303,2.725-2.208v-3.225c-0.988,0.82-2.126,1.764-2.361,1.964c-0.415,0.347-0.765,0.534-1.09,0.539
			c-0.322-0.005-0.675-0.192-1.089-0.539c-0.236-0.201-1.376-1.144-2.362-1.964v3.225c1.12,0.905,2.583,2.087,2.725,2.208
			C56.67,30.38,56.907,30.548,57.175,30.548z M30.074,108.433c-1.162-1.452-8.793-10.594-9.361-11.275
			c-0.632-0.771-0.586-1.921-0.586-2.748c0-0.825-0.021-2.097,0.586-3.148c0.798-1.369,5.061-8.537,5.282-8.807
			c0.217-0.264,2.922-2.63,3.123-2.975c0.201-0.346,8.788-22.225,9.253-23.373c0.502-1.248,1.254-2.468,2.943-2.945
			c1.684-0.479,4.309-1.377,4.309-1.377s-1.571-2.113-2.545-3.14c-0.974-1.034-1.567-3.34-1.567-3.34s-0.5,0-0.982,0
			c-0.484,0-0.903,0-1.375-0.59c-0.44-0.584-7.649-10.267-8.042-10.804c-0.123-0.163-0.214-0.314-0.276-0.46
			C17.172,48.487,3.547,63.482,2.333,64.819c-2.421,2.657-3.331,7.793-0.908,12.15c2.421,4.358,14.103,26.305,15.073,28.121
			c0.97,1.816,3.63,4.175,5.81,4.175h8.626C30.632,109.034,30.341,108.767,30.074,108.433z M85.547,87.94
			c0,0-4.545-4.025-5.196-4.602c-0.648-0.577-0.867-0.96-1-1.399c-0.131-0.437-6.233-20.252-7.791-22.612
			c-1.558-2.361-6.567-3.811-6.567-3.811s-2.52,2.512-3.223,3.207c-0.706,0.704-2.098,0.604-2.595,0.604h-3.998
			c-0.5,0-1.892,0.1-2.597-0.604c-0.703-0.695-3.223-3.207-3.223-3.207s-5.01,1.45-6.567,3.811
			c-1.559,2.36-7.663,22.176-7.791,22.612c-0.132,0.439-0.349,0.822-1,1.399c-0.651,0.576-5.195,4.602-5.195,4.602
			s-0.829,4.518,0.401,8.005c1.225,3.489,3.537,6.607,6.791,8.407c3.253,1.801,6.794,2,6.794,2l14.385-6.603l14.385,6.603
			c0,0,3.542-0.199,6.794-2c3.253-1.8,5.565-4.918,6.792-8.407C86.374,92.458,85.547,87.94,85.547,87.94z M64.07,89.558
			c-0.996,0-1.81-0.803-1.81-1.791c0-0.99,0.814-1.793,1.81-1.793c1.004,0,1.815,0.803,1.815,1.793
			C65.885,88.755,65.074,89.558,64.07,89.558z M67.899,92.938c-1.001,0-1.815-0.803-1.815-1.792c0-0.986,0.813-1.787,1.815-1.787
			c1.001,0,1.812,0.801,1.812,1.787C69.711,92.135,68.9,92.938,67.899,92.938z M66.084,84.384c0-0.988,0.813-1.789,1.815-1.789
			c1.001,0,1.812,0.801,1.812,1.789c0,0.989-0.811,1.792-1.812,1.792C66.898,86.176,66.084,85.373,66.084,84.384z M71.524,89.558
			c-1.001,0-1.812-0.803-1.812-1.791c0-0.99,0.812-1.793,1.812-1.793s1.813,0.803,1.813,1.793
			C73.337,88.755,72.525,89.558,71.524,89.558z M79.323,97.54c0,0.361-0.29,0.432-0.401,0c-0.899-3.422-2.407-8.723-5.008-13.555
			c-2.605-4.835-4.921-5.164-6.023-5.164c-1.104,0-2.169,0.416-2.998,1.176c-1.351,1.247-2.022,1.982-2.603,2.393
			c-0.583,0.404-1.465,0.98-2.405,0.997c-0.758,0.009-4.476,0.009-5.236,0c-0.939-0.017-1.822-0.593-2.404-0.997
			c-0.583-0.41-1.253-1.146-2.604-2.393c-0.829-0.76-1.896-1.176-2.998-1.176c-1.1,0-3.42,0.329-6.021,5.164
			c-2.606,4.832-4.115,10.133-5.011,13.555c-0.115,0.432-0.399,0.361-0.399,0c0-0.358-0.318-7.947,3.006-15.15
			c3.317-7.206,5.694-9.402,6.81-9.971c1.119-0.571,2.55-0.738,3.812-0.197c1.254,0.542,2.63,2.363,3.206,2.789
			c0.571,0.426,1.23,0.771,2.004,0.798c2.181,0.081,4.269,0.062,6.438,0c0.771-0.019,1.428-0.372,2.001-0.798
			c0.574-0.426,1.947-2.247,3.209-2.789c1.258-0.542,2.691-0.375,3.805,0.197c1.118,0.569,3.497,2.765,6.814,9.971
			C79.637,89.593,79.323,97.182,79.323,97.54z"/>
	</g>
</g>
<path fill="#FFFFFF" d="M183.845,75.032l-5.185-42.523h-8.27l-12.222,26.6l-12.404-26.6h-8.086l-5.245,42.523h9.936l2.839-24.132
	l9.259,19.257h7.405l9.258-19.32l2.777,24.194H183.845z"/>
<path fill="#FFFFFF" d="M217.668,75.032h10.307l-15.676-42.523h-10.554l-15.739,42.523h10.369l3.148-9.879h14.935L217.668,75.032z
	 M202.177,56.764l4.752-14.875l4.814,14.875H202.177z"/>
<path fill="#FFFFFF" d="M232.296,75.032h16.786c12.283,0,19.382-9.135,19.382-21.169c0-12.099-7.099-21.354-19.382-21.354h-16.786
	V75.032z M241.986,66.576V40.964h7.096c6.36,0,9.629,6.234,9.629,12.899c0,6.601-3.269,12.713-9.629,12.713H241.986z"/>
<path fill="#FFFFFF" d="M325.183,75.032l-5.185-42.523h-8.271l-12.219,26.6l-12.407-26.6h-8.085l-5.244,42.523h9.937l2.837-24.132
	l9.26,19.257h7.405l9.257-19.32l2.779,24.194H325.183z"/>
<path fill="#FFFFFF" d="M351.725,75.588c11.971,0,21.661-9.812,21.661-21.85c0-12.034-9.69-21.784-21.661-21.784
	c-12.159,0-21.727,9.75-21.727,21.784C329.998,65.776,339.565,75.588,351.725,75.588z M351.66,66.452
	c-7.158,0-11.912-5.616-11.912-12.714c0-7.096,4.754-12.652,11.912-12.652c7.098,0,11.976,5.557,11.976,12.652
	C363.636,60.836,358.758,66.452,351.66,66.452z"/>
<path fill="#FFFFFF" d="M403.137,32.509V56.64l-13.579-24.131h-8.888v42.523h9.688v-24.44l13.948,24.44h8.519V32.509H403.137z"/>
<path fill="#FFFFFF" d="M463.497,53.801c0-12.037-9.691-21.787-21.662-21.787c-12.159,0-21.726,9.75-21.726,21.787
	c0,12.034,9.566,21.846,21.726,21.846c1.914,0,3.763-0.248,5.552-0.738l4.446,7.405l6.786-4.072l-4.072-6.729
	C459.978,67.503,463.497,61.082,463.497,53.801z M441.771,66.512c-7.157,0-11.911-5.614-11.911-12.71
	c0-7.097,4.754-12.654,11.911-12.654c7.099,0,11.977,5.557,11.977,12.654c0,3.949-1.482,7.407-4.013,9.751l-4.013-6.605
	l-6.789,4.013l3.334,5.552H441.771z"/>
<path fill="#FFFFFF" d="M479.865,29.402c-7.018,0-12.558,5.685-12.558,12.736c0,7.016,5.54,12.701,12.558,12.701
	c7.013,0,12.591-5.685,12.591-12.701C492.456,35.125,486.878,29.402,479.865,29.402z M479.865,52.607
	c-5.756,0-10.364-4.712-10.364-10.47c0-5.757,4.608-10.503,10.364-10.503c5.789,0,10.359,4.71,10.359,10.503
	C490.225,47.896,485.654,52.607,479.865,52.607z M484.792,40.125c0-2.088-1.332-4.102-4.21-4.102h-5.071v12.232h2.948v-3.992h0.434
	l2.806,3.992h3.239l-2.986-4.102C483.498,43.829,484.792,42.714,484.792,40.125z M478.459,38.65h1.654
	c1.262,0,1.692,0.972,1.692,1.619c0,0.719-0.431,1.726-1.763,1.726h-1.584V38.65z"/>
</svg>
