<svg width="1920" height="1080" viewBox="0 0 1920 1080" fill="none" xmlns="http://www.w3.org/2000/svg">
<g clip-path="url(#clip0_40_2)">
<rect width="1920" height="1080" fill="white"/>
<g clip-path="url(#clip1_40_2)">
<path d="M1847.47 23.0491L-135 310.7L20.081 1379.51L2002.55 1091.86L1847.47 23.0491Z" fill="white"/>
<path d="M-31.3255 1025.22L-2.87534 1010.58C25.6035 996.141 82.5038 966.867 142.373 955.149C202.036 943.461 264.874 949.298 325.571 944.735C386.503 940.34 445.528 925.713 504.783 912.669C564.067 899.823 623.552 888.363 683.353 879.08C743.154 869.796 803.213 862.294 861.934 842.659C920.448 823.054 977.829 791.285 1039.39 792.66C1101.18 794.203 1167.39 829.057 1231.64 850.453C1295.86 871.65 1358.16 879.587 1419 877.429C1479.83 875.271 1539.26 863.415 1596.34 832.498C1653.22 801.61 1708.02 752.028 1763.95 714.609C1820.08 677.16 1877.56 651.845 1906.32 639.385L1935.06 626.727L2002.84 1093.84L1972.89 1098.18C1942.95 1102.53 1883.06 1111.21 1822.76 1119.96C1762.67 1128.68 1701.95 1137.49 1641.86 1146.21C1581.56 1154.96 1521.67 1163.65 1461.79 1172.34C1401.9 1181.03 1342.01 1189.72 1282.13 1198.41C1222.24 1207.1 1162.35 1215.79 1102.05 1224.54C1041.96 1233.26 981.245 1242.07 921.152 1250.79C860.852 1259.53 800.965 1268.22 741.078 1276.91C681.191 1285.6 621.304 1294.29 561.416 1302.98C501.529 1311.67 441.642 1320.36 381.342 1329.11C321.249 1337.83 260.536 1346.64 200.442 1355.36C140.142 1364.11 80.2552 1372.8 50.3117 1377.14L20.3682 1381.49L-31.3255 1025.22Z" fill="#1F3A47"/>
<path d="M-10.6481 1167.73L19.9559 1167.93C50.5887 1168.34 111.797 1168.75 169.483 1141.99C226.935 1115.06 281.043 1060.73 338.638 1034.79C396.468 1009.02 457.963 1011.42 520.291 1019.55C582.619 1027.68 645.78 1041.56 707.85 1047.91C769.948 1054.46 830.984 1053.69 889.331 1031.48C947.443 1009.11 1003.1 965.461 1062.28 950.408C1121.66 935.325 1184.82 949.199 1243.87 934.77C1302.96 920.538 1357.96 878.201 1415.92 856.251C1473.91 834.498 1534.84 832.934 1596.11 830.914C1657.15 828.726 1718.73 825.855 1780.49 828.615C1842.48 831.544 1904.84 839.876 1936.05 844.24L1967.22 848.406L2002.84 1093.84L1972.89 1098.18C1942.95 1102.53 1883.06 1111.21 1822.76 1119.96C1762.67 1128.68 1701.95 1137.49 1641.86 1146.21C1581.56 1154.96 1521.67 1163.65 1461.79 1172.34C1401.9 1181.03 1342.01 1189.72 1282.13 1198.41C1222.24 1207.1 1162.35 1215.79 1102.05 1224.54C1041.96 1233.26 981.245 1242.07 921.152 1250.79C860.852 1259.53 800.965 1268.22 741.078 1276.91C681.19 1285.6 621.303 1294.29 561.416 1302.98C501.529 1311.67 441.642 1320.36 381.342 1329.11C321.249 1337.83 260.536 1346.64 200.442 1355.36C140.142 1364.11 80.2551 1372.8 50.3116 1377.14L20.3681 1381.49L-10.6481 1167.73Z" fill="#758A95"/>
<path d="M9.45516 1306.27L39.772 1304.5C70.1176 1302.93 130.751 1299.39 188.237 1271.24C245.516 1243.12 299.796 1189.98 358.167 1169.38C416.743 1148.76 479.617 1160.65 540.509 1158.89C601.402 1157.13 660.312 1141.71 719.883 1130.84C779.426 1119.78 839.6 1113.07 900.187 1106.3C960.568 1099.56 1021.57 1092.73 1081.03 1079.65C1140.73 1066.75 1199.06 1047.37 1260.5 1049.37C1321.91 1051.17 1386.39 1074.15 1446.77 1068.82C1507.11 1063.3 1563.38 1029.67 1621.99 1009.25C1680.42 989.047 1741.42 982.217 1803.03 983.988C1864.88 985.927 1927.53 996.238 1958.88 1001.59L1990.2 1006.75L2002.84 1093.84L1972.89 1098.18C1942.95 1102.53 1883.06 1111.21 1822.76 1119.96C1762.67 1128.68 1701.95 1137.49 1641.86 1146.21C1581.56 1154.96 1521.67 1163.65 1461.79 1172.34C1401.9 1181.03 1342.01 1189.72 1282.13 1198.41C1222.24 1207.1 1162.35 1215.79 1102.05 1224.54C1041.96 1233.26 981.245 1242.07 921.152 1250.79C860.852 1259.53 800.965 1268.22 741.078 1276.91C681.191 1285.6 621.304 1294.29 561.417 1302.98C501.53 1311.67 441.643 1320.36 381.343 1329.11C321.249 1337.83 260.536 1346.64 200.442 1355.36C140.142 1364.11 80.2553 1372.8 50.3118 1377.14L20.3683 1381.49L9.45516 1306.27Z" fill="#D4E4EC"/>
</g>
</g>
<defs>
<clipPath id="clip0_40_2">
<rect width="1920" height="1080" fill="white"/>
</clipPath>
<clipPath id="clip1_40_2">
<rect width="2003.23" height="1080" fill="white" transform="translate(-135 310.7) rotate(-8.25584)"/>
</clipPath>
</defs>
</svg>
