<svg width="630" height="686" viewBox="0 0 630 686" fill="none" xmlns="http://www.w3.org/2000/svg">
<path d="M552.497 101.64C608.052 134.833 635.127 215.283 628.868 285.888C622.609 356.493 582.947 417.253 549.613 487.998C516.21 558.674 489.205 639.265 434.845 669.926C380.555 700.516 298.909 681.107 230.062 647.141C161.216 613.245 105.097 564.721 63.8173 502.907C22.5373 441.163 -3.83407 366.127 0.455671 288.631C4.74542 211.204 39.8369 131.317 99.7527 98.8271C159.668 66.4079 244.409 81.3868 328.727 81.8791C413.045 82.3713 497.011 68.3769 552.497 101.64Z" fill="#1F3A47"/>
<path d="M359.419 595.64L184.647 525.199C174.174 520.964 165.806 512.742 161.379 502.337C156.952 491.932 156.828 480.194 161.034 469.697L339.103 26.7306C343.333 16.2437 351.544 7.86488 361.935 3.43229C372.326 -1.00029 384.049 -1.12462 394.532 3.08658L569.305 73.5275C579.778 77.7625 588.146 85.9843 592.572 96.3892C596.999 106.794 597.123 118.532 592.918 129.029L414.848 571.995C410.619 582.482 402.408 590.861 392.016 595.294C381.625 599.726 369.902 599.851 359.419 595.64Z" fill="#3F3D56"/>
<path d="M562.41 85.0242L542.956 77.1833C541.219 76.4853 539.277 76.5057 537.555 77.2402C535.833 77.9747 534.472 79.3632 533.772 81.1011C532.34 84.6542 529.558 87.4931 526.038 88.9948C522.517 90.4966 518.545 90.5383 514.994 89.1109L419.848 50.763C416.3 49.3289 413.465 46.5436 411.965 43.0186C410.465 39.4935 410.424 35.5166 411.849 31.9608C412.546 30.2216 412.526 28.2765 411.792 26.5523C411.059 24.8282 409.672 23.4659 407.936 22.7644L390.783 15.8507C382.832 12.658 373.941 12.753 366.06 16.1147C358.179 19.4764 351.952 25.8305 348.743 33.7835L171.939 473.601C168.751 481.562 168.845 490.465 172.203 498.356C175.56 506.247 181.906 512.483 189.848 515.696L361.476 584.87C369.427 588.062 378.317 587.967 386.198 584.606C394.079 581.244 400.307 574.89 403.516 566.937L580.32 127.119C583.508 119.158 583.413 110.256 580.056 102.364C576.699 94.4731 570.353 88.2372 562.41 85.0242Z" fill="white"/>
<path d="M495.86 68.4617L442.183 46.8276C441.674 46.6227 441.268 46.2239 441.053 45.719C440.839 45.2142 440.833 44.6445 441.038 44.1354C441.242 43.6263 441.64 43.2195 442.145 43.0044C442.649 42.7893 443.218 42.7836 443.726 42.9885L497.403 64.6226C497.655 64.7241 497.884 64.8742 498.078 65.0644C498.272 65.2546 498.426 65.4812 498.532 65.7312C498.639 65.9811 498.695 66.2497 498.698 66.5214C498.7 66.7931 498.65 67.0627 498.548 67.3148C498.447 67.5669 498.297 67.7965 498.107 67.9905C497.917 68.1846 497.691 68.3393 497.441 68.4458C497.191 68.5523 496.923 68.6085 496.652 68.6112C496.381 68.614 496.111 68.5631 495.86 68.4617Z" fill="white"/>
<path d="M505.066 71.5973C505.979 71.5973 506.719 70.8562 506.719 69.942C506.719 69.0277 505.979 68.2866 505.066 68.2866C504.153 68.2866 503.413 69.0277 503.413 69.942C503.413 70.8562 504.153 71.5973 505.066 71.5973Z" fill="white"/>
<path d="M540.14 264.751C539.226 264.382 538.495 263.664 538.108 262.755C537.722 261.847 537.711 260.822 538.078 259.905L565.24 192.338C565.609 191.423 566.326 190.691 567.233 190.305C568.14 189.919 569.164 189.909 570.078 190.277C570.993 190.646 571.724 191.363 572.11 192.271C572.497 193.179 572.508 194.203 572.141 195.119L544.98 262.687C544.61 263.603 543.893 264.334 542.986 264.721C542.079 265.108 541.055 265.119 540.14 264.751Z" fill="#3F3D56"/>
<path d="M304.855 111.927C303.941 111.557 303.21 110.84 302.823 109.931C302.437 109.023 302.426 107.998 302.793 107.081L308.966 91.725C309.148 91.2704 309.418 90.8562 309.76 90.5061C310.101 90.156 310.509 89.8768 310.959 89.6845C311.408 89.4922 311.892 89.3906 312.381 89.3855C312.87 89.3803 313.355 89.4718 313.808 89.6547C314.262 89.8375 314.675 90.1081 315.024 90.451C315.373 90.7939 315.652 91.2024 315.843 91.653C316.034 92.1037 316.135 92.5876 316.139 93.0773C316.143 93.5669 316.051 94.0526 315.868 94.5065L309.695 109.863C309.325 110.778 308.608 111.51 307.701 111.897C306.794 112.284 305.77 112.295 304.855 111.927Z" fill="#3F3D56"/>
<path d="M293.435 140.336C292.52 139.966 291.79 139.248 291.403 138.34C291.017 137.432 291.006 136.407 291.373 135.49L297.546 120.134C297.728 119.679 297.997 119.265 298.339 118.915C298.681 118.565 299.089 118.285 299.538 118.093C299.988 117.9 300.471 117.799 300.96 117.794C301.449 117.789 301.935 117.88 302.388 118.063C302.842 118.246 303.255 118.516 303.604 118.859C303.954 119.202 304.232 119.611 304.423 120.062C304.614 120.512 304.715 120.996 304.719 121.486C304.723 121.976 304.631 122.461 304.447 122.915L298.274 138.272C297.905 139.187 297.188 139.919 296.281 140.306C295.374 140.693 294.35 140.704 293.435 140.336Z" fill="#3F3D56"/>
<path d="M457.427 205.553L383.182 175.629C381.66 175.011 380.445 173.816 379.802 172.304C379.158 170.792 379.139 169.086 379.748 167.56L397.567 123.233C398.183 121.71 399.377 120.493 400.887 119.849C402.397 119.205 404.1 119.185 405.625 119.795L479.87 149.719C481.391 150.336 482.606 151.531 483.25 153.043C483.893 154.555 483.913 156.26 483.304 157.787L465.485 202.114C464.868 203.637 463.675 204.854 462.165 205.498C460.655 206.142 458.952 206.162 457.427 205.553ZM404.373 122.913C403.674 122.634 402.894 122.643 402.202 122.938C401.51 123.234 400.962 123.791 400.68 124.49L382.862 168.813C382.583 169.513 382.592 170.295 382.887 170.988C383.182 171.681 383.739 172.229 384.437 172.512L458.676 202.434C459.376 202.713 460.157 202.704 460.849 202.409C461.542 202.113 462.089 201.555 462.372 200.857L480.19 156.534C480.469 155.834 480.459 155.052 480.164 154.36C479.869 153.667 479.312 153.119 478.615 152.836L404.373 122.913Z" fill="#3F3D56"/>
<path d="M457.868 177.347L457.863 177.345L400.551 154.246C399.752 153.921 399.072 153.358 398.604 152.634C398.135 151.909 397.901 151.057 397.933 150.194L399.015 123.316C399.042 122.646 399.229 121.993 399.561 121.411C399.893 120.828 400.359 120.334 400.921 119.97C401.483 119.605 402.124 119.381 402.79 119.317C403.456 119.252 404.129 119.348 404.75 119.597L480.598 150.017C481.623 150.429 482.444 151.23 482.882 152.245C483.32 153.261 483.339 154.408 482.934 155.438L483.183 155.687L480.805 158.059L480.804 158.058L462.378 176.429C461.799 177.008 461.063 177.403 460.261 177.567C459.459 177.73 458.626 177.653 457.868 177.347Z" fill="#3F3D56"/>
<path d="M414.83 179.301L389.34 169.028C388.713 168.774 388.211 168.282 387.946 167.658C387.681 167.035 387.674 166.331 387.927 165.703C388.179 165.074 388.671 164.572 389.294 164.306C389.916 164.04 390.619 164.033 391.247 164.285L416.737 174.559C417.364 174.812 417.866 175.305 418.131 175.928C418.396 176.552 418.403 177.255 418.15 177.884C417.897 178.513 417.406 179.015 416.783 179.281C416.161 179.547 415.458 179.554 414.83 179.301Z" fill="#3F3D56"/>
<path d="M430.611 170.798C434.057 170.798 436.851 168.001 436.851 164.55C436.851 161.1 434.057 158.302 430.611 158.302C427.165 158.302 424.372 161.1 424.372 164.55C424.372 168.001 427.165 170.798 430.611 170.798Z" fill="white"/>
<path d="M346.716 480.959L272.47 451.035C270.949 450.417 269.734 449.222 269.09 447.71C268.447 446.198 268.428 444.492 269.036 442.965L286.855 398.639C287.472 397.116 288.666 395.899 290.176 395.255C291.686 394.61 293.389 394.591 294.913 395.2L369.159 425.124C370.68 425.742 371.895 426.937 372.539 428.449C373.182 429.961 373.202 431.666 372.593 433.193L354.774 477.52C354.157 479.043 352.963 480.259 351.454 480.904C349.944 481.548 348.24 481.568 346.716 480.959ZM293.662 398.319C292.963 398.04 292.182 398.049 291.49 398.344C290.798 398.64 290.251 399.197 289.969 399.895L272.151 444.219C271.872 444.919 271.881 445.7 272.176 446.393C272.471 447.086 273.028 447.634 273.725 447.918L347.965 477.839C348.664 478.119 349.446 478.11 350.138 477.815C350.831 477.519 351.378 476.961 351.661 476.263L369.479 431.94C369.757 431.24 369.748 430.458 369.453 429.765C369.158 429.072 368.601 428.525 367.904 428.242L293.662 398.319Z" fill="#3F3D56"/>
<path d="M347.156 452.752L347.152 452.751L289.84 429.651C289.041 429.327 288.361 428.764 287.892 428.039C287.424 427.315 287.19 426.463 287.222 425.6L288.304 398.722C288.331 398.052 288.518 397.399 288.85 396.816C289.181 396.234 289.648 395.74 290.21 395.376C290.772 395.011 291.413 394.787 292.079 394.722C292.745 394.657 293.417 394.754 294.039 395.003L369.887 425.423C370.912 425.835 371.733 426.636 372.171 427.651C372.608 428.667 372.627 429.814 372.223 430.843L372.472 431.093L370.093 433.465L370.093 433.464L351.667 451.834C351.088 452.413 350.351 452.809 349.549 452.972C348.747 453.136 347.915 453.059 347.156 452.752Z" fill="#3F3D56"/>
<path d="M304.119 454.707L278.629 444.434C278.001 444.18 277.5 443.688 277.235 443.064C276.97 442.441 276.963 441.737 277.216 441.108C277.468 440.48 277.96 439.977 278.582 439.712C279.205 439.446 279.908 439.439 280.536 439.691L306.025 449.965C306.336 450.09 306.62 450.276 306.859 450.51C307.099 450.745 307.289 451.025 307.421 451.334C307.552 451.643 307.621 451.975 307.625 452.31C307.628 452.646 307.566 452.979 307.44 453.29C307.315 453.602 307.13 453.885 306.895 454.125C306.661 454.365 306.381 454.556 306.073 454.688C305.764 454.819 305.433 454.889 305.098 454.892C304.763 454.895 304.43 454.832 304.119 454.707Z" fill="#3F3D56"/>
<path d="M319.9 446.204C323.346 446.204 326.14 443.406 326.14 439.956C326.14 436.505 323.346 433.708 319.9 433.708C316.454 433.708 313.66 436.505 313.66 439.956C313.66 443.406 316.454 446.204 319.9 446.204Z" fill="white"/>
<path d="M376.129 368.698C413.822 368.698 444.378 338.102 444.378 300.36C444.378 262.618 413.822 232.022 376.129 232.022C338.436 232.022 307.88 262.618 307.88 300.36C307.88 338.102 338.436 368.698 376.129 368.698Z" fill="#6C63FF"/>
<path d="M402.031 343.24L327.785 313.315C326.264 312.698 325.049 311.502 324.405 309.99C323.762 308.478 323.742 306.773 324.351 305.246L342.17 260.92C342.787 259.396 343.981 258.18 345.491 257.535C347.001 256.891 348.704 256.872 350.228 257.481L424.473 287.405C425.995 288.023 427.21 289.218 427.853 290.73C428.497 292.242 428.516 293.947 427.908 295.473L410.089 339.801C409.472 341.324 408.278 342.54 406.768 343.185C405.258 343.829 403.555 343.849 402.031 343.24ZM348.977 260.6C348.278 260.32 347.497 260.33 346.805 260.625C346.113 260.92 345.566 261.478 345.283 262.176L327.465 306.5C327.187 307.199 327.196 307.981 327.491 308.674C327.786 309.367 328.343 309.915 329.04 310.198L403.28 340.12C403.979 340.4 404.76 340.391 405.453 340.095C406.145 339.8 406.693 339.242 406.976 338.544L424.793 294.22C425.072 293.521 425.063 292.739 424.768 292.046C424.473 291.353 423.916 290.805 423.218 290.522L348.977 260.6Z" fill="#3F3D56"/>
<path d="M402.471 315.033L402.467 315.032L345.154 291.932C344.355 291.608 343.676 291.045 343.207 290.32C342.739 289.595 342.505 288.744 342.537 287.881L343.619 261.003C343.646 260.333 343.833 259.679 344.164 259.097C344.496 258.515 344.962 258.021 345.524 257.656C346.086 257.292 346.727 257.068 347.394 257.003C348.06 256.938 348.732 257.034 349.354 257.284L425.202 287.704C426.227 288.116 427.048 288.916 427.486 289.932C427.923 290.947 427.942 292.095 427.538 293.124L427.786 293.373L425.408 295.745L425.408 295.745L406.982 314.115C406.402 314.694 405.666 315.09 404.864 315.253C404.062 315.416 403.23 315.34 402.471 315.033Z" fill="#3F3D56"/>
<path d="M359.434 316.988L333.944 306.714C333.316 306.461 332.815 305.968 332.55 305.345C332.285 304.721 332.278 304.018 332.53 303.389C332.783 302.761 333.275 302.258 333.897 301.992C334.52 301.727 335.222 301.719 335.85 301.972L361.34 312.246C361.968 312.499 362.469 312.992 362.735 313.615C363 314.239 363.007 314.942 362.754 315.571C362.501 316.199 362.009 316.702 361.387 316.967C360.764 317.233 360.062 317.241 359.434 316.988Z" fill="#3F3D56"/>
<path d="M191.699 350.383C191.705 349.076 191.425 347.783 190.879 346.596C190.333 345.408 189.533 344.355 188.536 343.511C187.54 342.666 186.37 342.051 185.11 341.708C183.85 341.365 182.531 341.303 181.244 341.526L165.877 313.721L158.227 328.351L173.992 352.512C174.51 354.651 175.793 356.526 177.599 357.781C179.405 359.037 181.607 359.585 183.79 359.323C185.972 359.06 187.983 358.005 189.441 356.358C190.898 354.71 191.702 352.584 191.699 350.383Z" fill="#9E616A"/>
<path d="M181.77 238.073L165.967 236.963C165.967 236.963 164.021 236.698 158.668 245.198C153.314 253.698 134.964 296.801 134.964 296.801L167.113 343.524L177.554 333.116L158.887 295.52L176.78 270.358L181.77 238.073Z" fill="#CACACA"/>
<path d="M355.984 288.584C354.925 288.988 353.79 289.155 352.66 289.073C351.529 288.991 350.43 288.662 349.441 288.108C348.451 287.555 347.595 286.791 346.932 285.87C346.269 284.95 345.816 283.895 345.604 282.78L318.345 278.761L327.884 268.07L352.308 273.525C354.202 273.293 356.115 273.765 357.685 274.851C359.255 275.938 360.373 277.563 360.826 279.419C361.279 281.275 361.037 283.234 360.144 284.923C359.252 286.612 357.772 287.915 355.984 288.584Z" fill="#9E616A"/>
<path d="M251.201 587.57H262.85L268.391 542.58L251.2 542.581L251.201 587.57Z" fill="#9E616A"/>
<path d="M248.23 583.761L251.509 583.761L264.31 578.549L271.17 583.761H271.171C275.048 583.761 278.767 585.303 281.508 588.048C284.25 590.793 285.79 594.517 285.791 598.399V598.874L248.231 598.876L248.23 583.761Z" fill="#2F2E41"/>
<path d="M180.934 587.57H192.583L198.125 542.58L180.933 542.581L180.934 587.57Z" fill="#9E616A"/>
<path d="M177.963 583.761L181.242 583.761L194.043 578.549L200.904 583.761H200.905C204.782 583.761 208.5 585.303 211.242 588.048C213.983 590.793 215.524 594.517 215.524 598.399V598.874L177.964 598.876L177.963 583.761Z" fill="#2F2E41"/>
<path d="M185.428 366.029L177.729 412.498L180.318 561.875H199.267L228.379 403.867L249.321 559.278L268.374 558.452L277.882 401.582L269.338 361.541L185.428 366.029Z" fill="#2F2E41"/>
<path d="M255.051 227.834L234.77 224.842L230.458 213.631L201.885 213.592L195.465 228.23L166.268 237.057L190.458 320.263C190.458 320.263 177.126 351.185 180.405 351.317C183.684 351.45 185.299 356.144 183.012 358.611C180.725 361.078 176.137 359.509 178.431 363.256C179.745 365.283 180.626 367.562 181.017 369.948C181.017 369.948 277.763 390.629 272.404 363.961C271.737 360.646 263.654 314.716 263.654 314.716C263.654 314.716 270.693 306.916 267.684 303.817C264.676 300.717 266.264 267.983 266.264 267.983L255.051 227.834Z" fill="#CACACA"/>
<path d="M251.732 231.47L255.051 227.834L300.148 254.312L338.306 269.55L339.046 282.881L289.489 276.956L254.415 259.783L251.732 231.47Z" fill="#CACACA"/>
<path d="M239.193 181.48C239.193 184.619 238.575 187.727 237.376 190.627C236.176 193.528 234.417 196.163 232.201 198.382C229.984 200.602 227.352 202.363 224.456 203.564C221.56 204.765 218.456 205.383 215.321 205.383C213.441 205.38 211.567 205.161 209.737 204.729C205.377 203.681 201.4 201.425 198.26 198.22C195.121 195.014 192.946 190.988 191.985 186.602C191.025 182.217 191.316 177.649 192.827 173.421C194.338 169.194 197.006 165.478 200.528 162.698C204.049 159.919 208.281 158.188 212.739 157.705C217.197 157.221 221.701 158.004 225.735 159.963C229.769 161.923 233.171 164.981 235.551 168.786C237.931 172.591 239.193 176.99 239.193 181.48Z" fill="#9E616A"/>
<path d="M221.715 200.864L204.569 204.175C202.972 204.607 201.298 204.677 199.67 204.379C197.12 203.706 195.411 201.349 194.106 199.054C188.052 188.306 186.146 175.707 188.748 163.645C189.333 160.983 190.585 157.932 193.254 157.39C194.029 157.232 194.905 157.295 195.519 156.795C196.423 156.059 196.125 154.498 195.238 153.743C194.273 153.077 193.136 152.707 191.964 152.678C192.721 151.787 193.658 151.067 194.712 150.564C195.767 150.062 196.916 149.789 198.083 149.763L193.497 147.212C195.706 145.677 198.674 145.817 201.28 146.48C203.886 147.143 206.394 148.266 209.071 148.517C212.432 148.833 215.749 147.752 219.099 147.334C224.097 146.791 229.146 147.695 233.647 149.938C238.148 152.181 241.912 155.67 244.493 159.99C245.403 161.431 245.979 163.057 246.18 164.75C246.272 165.596 246.166 166.453 245.87 167.251C245.574 168.049 245.096 168.767 244.474 169.348C242.596 170.929 239.639 170.697 237.82 172.345C236.418 173.616 236.069 175.668 235.99 177.56C235.911 179.452 236 181.428 235.191 183.139C234.381 184.851 232.268 186.137 230.579 185.287C230.504 182.943 227.807 181.284 225.515 181.768C223.224 182.252 221.532 184.338 220.873 186.588C220.214 188.838 220.409 191.242 220.696 193.569C220.984 195.896 221.357 198.25 221.035 200.572" fill="#2F2E41"/>
<path d="M372.551 309.178C375.997 309.178 378.791 306.381 378.791 302.93C378.791 299.479 375.997 296.682 372.551 296.682C369.105 296.682 366.311 299.479 366.311 302.93C366.311 306.381 369.105 309.178 372.551 309.178Z" fill="#6C63FF"/>
</svg>
