<svg width="1920" height="1080" viewBox="0 0 1920 1080" fill="none" xmlns="http://www.w3.org/2000/svg">
<g clip-path="url(#clip0_52_2)">
<rect width="1920" height="1080" fill="white"/>
<g clip-path="url(#clip1_52_2)">
<path d="M1842.47 20.9999L-140 308.65L15.081 1377.46L1997.55 1089.81L1842.47 20.9999Z" fill="white"/>
<path d="M-36.3255 1023.17L-7.87534 1008.53C20.6035 994.092 77.5038 964.818 137.373 953.1C197.036 941.411 259.874 947.249 320.571 942.686C381.503 938.291 440.528 923.664 499.783 910.62C559.067 897.774 618.552 886.313 678.353 877.03C738.154 867.747 798.213 860.245 856.934 840.61C915.448 821.004 972.829 789.235 1034.39 790.61C1096.18 792.153 1162.39 827.008 1226.64 848.403C1290.86 869.601 1353.16 877.537 1414 875.38C1474.83 873.222 1534.26 861.365 1591.34 830.448C1648.22 799.561 1703.02 749.979 1758.95 712.56C1815.08 675.111 1872.56 649.796 1901.32 637.336L1930.06 624.678L1997.84 1091.79L1967.89 1096.13C1937.95 1100.48 1878.06 1109.17 1817.76 1117.91C1757.67 1126.63 1696.95 1135.44 1636.86 1144.16C1576.56 1152.91 1516.67 1161.6 1456.79 1170.29C1396.9 1178.98 1337.01 1187.67 1277.13 1196.36C1217.24 1205.05 1157.35 1213.74 1097.05 1222.49C1036.96 1231.21 976.245 1240.02 916.152 1248.74C855.852 1257.49 795.965 1266.17 736.078 1274.86C676.191 1283.55 616.304 1292.24 556.416 1300.93C496.529 1309.62 436.642 1318.31 376.342 1327.06C316.249 1335.78 255.536 1344.59 195.442 1353.31C135.142 1362.06 75.2552 1370.75 45.3117 1375.09L15.3682 1379.44L-36.3255 1023.17Z" fill="#1F3A47"/>
<path d="M-15.6481 1165.68L14.9559 1165.88C45.5887 1166.29 106.797 1166.7 164.483 1139.94C221.935 1113.01 276.043 1058.68 333.638 1032.74C391.468 1006.97 452.963 1009.37 515.291 1017.5C577.619 1025.64 640.78 1039.51 702.85 1045.86C764.948 1052.41 825.984 1051.64 884.331 1029.43C942.443 1007.06 998.102 963.412 1057.28 948.359C1116.66 933.276 1179.82 947.15 1238.87 932.721C1297.96 918.489 1352.96 876.152 1410.92 854.201C1468.91 832.449 1529.84 830.885 1591.11 828.865C1652.15 826.677 1713.73 823.806 1775.49 826.566C1837.48 829.494 1899.84 837.827 1931.05 842.191L1962.22 846.357L1997.84 1091.79L1967.89 1096.13C1937.95 1100.48 1878.06 1109.17 1817.76 1117.92C1757.67 1126.63 1696.95 1135.44 1636.86 1144.16C1576.56 1152.91 1516.67 1161.6 1456.79 1170.29C1396.9 1178.98 1337.01 1187.67 1277.13 1196.36C1217.24 1205.05 1157.35 1213.74 1097.05 1222.49C1036.96 1231.21 976.245 1240.02 916.152 1248.74C855.852 1257.49 795.965 1266.17 736.078 1274.86C676.19 1283.55 616.303 1292.24 556.416 1300.93C496.529 1309.62 436.642 1318.31 376.342 1327.06C316.249 1335.78 255.536 1344.59 195.442 1353.31C135.142 1362.06 75.2551 1370.75 45.3116 1375.09L15.3681 1379.44L-15.6481 1165.68Z" fill="#758A95"/>
<path d="M4.45516 1304.23L34.772 1302.45C65.1176 1300.88 125.751 1297.34 183.237 1269.19C240.516 1241.07 294.796 1187.93 353.167 1167.33C411.743 1146.71 474.617 1158.6 535.509 1156.84C596.402 1155.08 655.312 1139.66 714.883 1128.79C774.426 1117.73 834.6 1111.02 895.187 1104.25C955.568 1097.51 1016.57 1090.68 1076.03 1077.61C1135.73 1064.7 1194.06 1045.32 1255.5 1047.32C1316.91 1049.12 1381.39 1072.1 1441.77 1066.78C1502.11 1061.25 1558.38 1027.62 1616.99 1007.2C1675.42 986.998 1736.42 980.168 1798.03 981.939C1859.88 983.878 1922.53 994.189 1953.88 999.543L1985.2 1004.7L1997.84 1091.79L1967.89 1096.13C1937.95 1100.48 1878.06 1109.17 1817.76 1117.92C1757.67 1126.63 1696.95 1135.44 1636.86 1144.16C1576.56 1152.91 1516.67 1161.6 1456.79 1170.29C1396.9 1178.98 1337.01 1187.67 1277.13 1196.36C1217.24 1205.05 1157.35 1213.74 1097.05 1222.49C1036.96 1231.21 976.245 1240.02 916.152 1248.74C855.852 1257.49 795.965 1266.18 736.078 1274.86C676.191 1283.55 616.304 1292.24 556.417 1300.93C496.53 1309.62 436.643 1318.31 376.343 1327.06C316.249 1335.78 255.536 1344.59 195.442 1353.31C135.142 1362.06 75.2553 1370.75 45.3118 1375.09L15.3683 1379.44L4.45516 1304.23Z" fill="#D4E4EC"/>
</g>
</g>
<defs>
<clipPath id="clip0_52_2">
<rect width="1920" height="1080" fill="white"/>
</clipPath>
<clipPath id="clip1_52_2">
<rect width="2003.23" height="1080" fill="white" transform="translate(-140 308.65) rotate(-8.25584)"/>
</clipPath>
</defs>
</svg>
