<svg id="visual" viewBox="0 0 960 540" width="960" height="540" xmlns="http://www.w3.org/2000/svg" xmlns:xlink="http://www.w3.org/1999/xlink" version="1.1"><rect x="0" y="0" width="960" height="540" fill="#ffffff"></rect><path d="M0 440L22.8 436.2C45.7 432.3 91.3 424.7 137 415.7C182.7 406.7 228.3 396.3 274 395C319.7 393.7 365.3 401.3 411.2 411.8C457 422.3 503 435.7 548.8 429.3C594.7 423 640.3 397 686 391.5C731.7 386 777.3 401 823 405C868.7 409 914.3 402 937.2 398.5L960 395L960 541L937.2 541C914.3 541 868.7 541 823 541C777.3 541 731.7 541 686 541C640.3 541 594.7 541 548.8 541C503 541 457 541 411.2 541C365.3 541 319.7 541 274 541C228.3 541 182.7 541 137 541C91.3 541 45.7 541 22.8 541L0 541Z" fill="#387552"></path><path d="M0 469L22.8 461.3C45.7 453.7 91.3 438.3 137 431.2C182.7 424 228.3 425 274 424.3C319.7 423.7 365.3 421.3 411.2 420C457 418.7 503 418.3 548.8 425.2C594.7 432 640.3 446 686 447.5C731.7 449 777.3 438 823 436.2C868.7 434.3 914.3 441.7 937.2 445.3L960 449L960 541L937.2 541C914.3 541 868.7 541 823 541C777.3 541 731.7 541 686 541C640.3 541 594.7 541 548.8 541C503 541 457 541 411.2 541C365.3 541 319.7 541 274 541C228.3 541 182.7 541 137 541C91.3 541 45.7 541 22.8 541L0 541Z" fill="#59a67a"></path><path d="M0 441L22.8 444.2C45.7 447.3 91.3 453.7 137 461.2C182.7 468.7 228.3 477.3 274 478.5C319.7 479.7 365.3 473.3 411.2 464.3C457 455.3 503 443.7 548.8 441.2C594.7 438.7 640.3 445.3 686 446C731.7 446.7 777.3 441.3 823 437C868.7 432.7 914.3 429.3 937.2 427.7L960 426L960 541L937.2 541C914.3 541 868.7 541 823 541C777.3 541 731.7 541 686 541C640.3 541 594.7 541 548.8 541C503 541 457 541 411.2 541C365.3 541 319.7 541 274 541C228.3 541 182.7 541 137 541C91.3 541 45.7 541 22.8 541L0 541Z" fill="#7eba97"></path><path d="M0 481L22.8 484.3C45.7 487.7 91.3 494.3 137 494.3C182.7 494.3 228.3 487.7 274 480.7C319.7 473.7 365.3 466.3 411.2 463.8C457 461.3 503 463.7 548.8 469.5C594.7 475.3 640.3 484.7 686 487C731.7 489.3 777.3 484.7 823 483C868.7 481.3 914.3 482.7 937.2 483.3L960 484L960 541L937.2 541C914.3 541 868.7 541 823 541C777.3 541 731.7 541 686 541C640.3 541 594.7 541 548.8 541C503 541 457 541 411.2 541C365.3 541 319.7 541 274 541C228.3 541 182.7 541 137 541C91.3 541 45.7 541 22.8 541L0 541Z" fill="#59a67a"></path><path d="M0 509L22.8 506.5C45.7 504 91.3 499 137 496C182.7 493 228.3 492 274 495.8C319.7 499.7 365.3 508.3 411.2 507.8C457 507.3 503 497.7 548.8 494C594.7 490.3 640.3 492.7 686 494.5C731.7 496.3 777.3 497.7 823 496C868.7 494.3 914.3 489.7 937.2 487.3L960 485L960 541L937.2 541C914.3 541 868.7 541 823 541C777.3 541 731.7 541 686 541C640.3 541 594.7 541 548.8 541C503 541 457 541 411.2 541C365.3 541 319.7 541 274 541C228.3 541 182.7 541 137 541C91.3 541 45.7 541 22.8 541L0 541Z" fill="#387552"></path></svg>