<svg width="444" height="572" viewBox="0 0 444 572" fill="none" xmlns="http://www.w3.org/2000/svg">
<path d="M94 30C58.7 30 30 58.7 30 94V478C30 513.3 58.7 542 94 542H350C385.3 542 414 513.3 414 478V94C414 58.7 385.3 30 350 30H94ZM126 94H318C335.7 94 350 108.3 350 126V158C350 175.7 335.7 190 318 190H126C108.3 190 94 175.7 94 158V126C94 108.3 108.3 94 126 94ZM158 254C158 262.487 154.629 270.626 148.627 276.627C142.626 282.629 134.487 286 126 286C117.513 286 109.374 282.629 103.373 276.627C97.3714 270.626 94 262.487 94 254C94 245.513 97.3714 237.374 103.373 231.373C109.374 225.371 117.513 222 126 222C134.487 222 142.626 225.371 148.627 231.373C154.629 237.374 158 245.513 158 254ZM126 382C117.513 382 109.374 378.629 103.373 372.627C97.3714 366.626 94 358.487 94 350C94 341.513 97.3714 333.374 103.373 327.373C109.374 321.371 117.513 318 126 318C134.487 318 142.626 321.371 148.627 327.373C154.629 333.374 158 341.513 158 350C158 358.487 154.629 366.626 148.627 372.627C142.626 378.629 134.487 382 126 382ZM94 446C94 428.3 108.3 414 126 414H222C239.7 414 254 428.3 254 446C254 463.7 239.7 478 222 478H126C108.3 478 94 463.7 94 446ZM222 286C213.513 286 205.374 282.629 199.373 276.627C193.371 270.626 190 262.487 190 254C190 245.513 193.371 237.374 199.373 231.373C205.374 225.371 213.513 222 222 222C230.487 222 238.626 225.371 244.627 231.373C250.629 237.374 254 245.513 254 254C254 262.487 250.629 270.626 244.627 276.627C238.626 282.629 230.487 286 222 286ZM254 350C254 358.487 250.629 366.626 244.627 372.627C238.626 378.629 230.487 382 222 382C213.513 382 205.374 378.629 199.373 372.627C193.371 366.626 190 358.487 190 350C190 341.513 193.371 333.374 199.373 327.373C205.374 321.371 213.513 318 222 318C230.487 318 238.626 321.371 244.627 327.373C250.629 333.374 254 341.513 254 350ZM318 286C309.513 286 301.374 282.629 295.373 276.627C289.371 270.626 286 262.487 286 254C286 245.513 289.371 237.374 295.373 231.373C301.374 225.371 309.513 222 318 222C326.487 222 334.626 225.371 340.627 231.373C346.629 237.374 350 245.513 350 254C350 262.487 346.629 270.626 340.627 276.627C334.626 282.629 326.487 286 318 286ZM350 350C350 358.487 346.629 366.626 340.627 372.627C334.626 378.629 326.487 382 318 382C309.513 382 301.374 378.629 295.373 372.627C289.371 366.626 286 358.487 286 350C286 341.513 289.371 333.374 295.373 327.373C301.374 321.371 309.513 318 318 318C326.487 318 334.626 321.371 340.627 327.373C346.629 333.374 350 341.513 350 350ZM318 478C309.513 478 301.374 474.629 295.373 468.627C289.371 462.626 286 454.487 286 446C286 437.513 289.371 429.374 295.373 423.373C301.374 417.371 309.513 414 318 414C326.487 414 334.626 417.371 340.627 423.373C346.629 429.374 350 437.513 350 446C350 454.487 346.629 462.626 340.627 468.627C334.626 474.629 326.487 478 318 478Z" fill="url(#paint0_linear_2_10)"/>
<defs>
<linearGradient id="paint0_linear_2_10" x1="309" y1="79" x2="138" y2="542" gradientUnits="userSpaceOnUse">
<stop stop-color="#1F7A8C"/>
<stop offset="1" stop-color="#1D217A"/>
</linearGradient>
</defs>
</svg>
